<?xml version="1.0" standalone="no"?>
<!DOCTYPE svg PUBLIC "-//W3C//DTD SVG 20010904//EN"
 "http://www.w3.org/TR/2001/REC-SVG-20010904/DTD/svg10.dtd">
<svg version="1.0" xmlns="http://www.w3.org/2000/svg"
 width="654.000000pt" height="654.000000pt" viewBox="0 0 654.000000 654.000000"
 preserveAspectRatio="xMidYMid meet">
<metadata>
Created by potrace 1.14, written by Peter Selinger 2001-2017
</metadata>
<g transform="translate(0.000000,654.000000) scale(0.100000,-0.100000)"
fill="#000000" stroke="none">
<path d="M893 5898 c0 -7 -3 -72 -7 -143 l-8 -131 134 -58 c304 -134 683 -333
983 -519 406 -251 732 -478 1240 -864 l42 -33 119 91 c66 49 130 99 144 110
160 128 643 459 950 651 312 195 727 420 960 521 36 16 99 43 140 61 l75 32
-1 45 c-3 97 -13 231 -18 236 -12 12 -493 -220 -732 -353 -626 -349 -1158
-781 -1513 -1228 -47 -60 -95 -120 -106 -133 l-21 -25 -59 78 c-477 626 -1182
1152 -2131 1592 -176 82 -191 87 -191 70z"/>
<path d="M406 5612 c-2 -4 -7 -50 -10 -102 -4 -52 -9 -128 -12 -167 l-6 -73
214 -104 c117 -57 357 -174 533 -261 176 -87 428 -210 560 -275 132 -65 411
-202 620 -305 209 -103 495 -244 635 -312 140 -69 273 -134 295 -145 l40 -20
-40 39 c-382 365 -962 773 -1640 1153 -343 193 -1176 593 -1189 572z"/>
<path d="M6095 5600 c-22 -10 -123 -55 -225 -101 -513 -230 -1097 -546 -1540
-830 -355 -229 -756 -535 -984 -752 l-71 -67 175 86 c96 48 261 128 365 179
105 51 375 184 600 295 226 111 509 251 630 310 357 175 922 453 1028 505 95
47 98 49 93 79 -2 17 -7 81 -11 141 -6 101 -13 166 -18 171 -1 1 -20 -6 -42
-16z"/>
<path d="M154 5028 c4 -46 8 -110 11 -143 2 -33 7 -96 10 -140 3 -44 8 -107
10 -140 5 -61 10 -126 20 -270 3 -44 8 -111 11 -150 3 -38 7 -95 9 -125 10
-135 14 -191 20 -270 3 -47 8 -105 10 -130 2 -25 7 -88 10 -140 4 -52 8 -115
10 -140 2 -25 6 -88 10 -140 3 -52 8 -115 10 -140 3 -25 7 -79 10 -120 3 -41
7 -106 10 -145 3 -38 7 -104 10 -145 6 -82 13 -183 20 -270 4 -53 11 -146 21
-280 20 -286 26 -345 33 -351 3 -3 35 -17 71 -31 36 -14 218 -87 405 -163 413
-167 1033 -417 1815 -731 l585 -236 360 145 c298 121 1989 802 2395 965 63 26
118 51 121 56 4 4 10 61 13 125 4 64 9 139 11 166 3 28 9 115 15 195 6 80 12
174 15 210 2 36 7 103 10 150 3 47 8 110 10 140 6 76 19 257 30 420 3 47 8
110 10 140 3 30 7 93 10 140 3 47 8 113 10 148 8 105 14 184 20 262 3 41 7
104 10 140 2 36 7 101 10 145 3 44 7 109 10 145 3 36 7 101 10 145 3 44 8 105
10 135 2 30 7 93 10 140 3 47 8 110 10 140 11 133 16 230 11 230 -6 0 -284
-135 -761 -370 -203 -100 -455 -224 -560 -275 -104 -51 -365 -179 -580 -285
-214 -106 -462 -227 -550 -270 -88 -43 -270 -132 -404 -199 -135 -66 -250
-121 -256 -121 -7 0 -178 81 -381 181 -203 100 -463 227 -579 284 -115 57
-340 167 -500 245 -159 78 -380 186 -490 240 -110 54 -375 184 -590 290 -413
203 -572 280 -581 280 -3 0 -3 -37 0 -82z"/>
</g>
</svg>
